<svg width="35" height="35" viewBox="0 0 35 35" fill="none" xmlns="http://www.w3.org/2000/svg">
<path d="M17.0833 0C7.82246 0 0 7.82246 0 17.0833C0 26.3442 7.82246 34.1667 17.0833 34.1667C26.3442 34.1667 34.1667 26.3442 34.1667 17.0833C34.1667 7.82246 26.3442 0 17.0833 0ZM17.0833 8.54167C20.0336 8.54167 22.2083 10.7147 22.2083 13.6667C22.2083 16.6187 20.0336 18.7917 17.0833 18.7917C14.1348 18.7917 11.9583 16.6187 11.9583 13.6667C11.9583 10.7147 14.1348 8.54167 17.0833 8.54167ZM8.36058 25.2355C9.89296 22.9805 12.4486 21.4772 15.375 21.4772H18.7917C21.7198 21.4772 24.2737 22.9805 25.8061 25.2355C23.6228 27.5725 20.5256 29.0417 17.0833 29.0417C13.641 29.0417 10.5438 27.5725 8.36058 25.2355Z" fill="#C4C4C4"/>
</svg>
